<?xml version="1.0" encoding="utf-8"?>
<!-- Generator: Adobe Illustrator 27.2.0, SVG Export Plug-In . SVG Version: 6.00 Build 0)  -->
<svg version="1.1" id="Layer_1" xmlns="http://www.w3.org/2000/svg" xmlns:xlink="http://www.w3.org/1999/xlink" x="0px" y="0px"
	 viewBox="0 0 500 200" style="enable-background:new 0 0 500 200;" xml:space="preserve">
<style type="text/css">
	.st0{fill:#FC7D1D;}
</style>
<g>
	<path class="st0" d="M174.7,57.2H149v26.5c0,7.5-5.8,13.6-13.1,14.2c1.7-4.4,2.6-9.1,2.6-14l0-2.9h-25.7v2.7
		c0,7.6-6,13.8-13.4,14.3V57.2H73.8v85.6h25.7v-19.2h35.3c5,0,9.9-0.9,14.3-2.7v21.8h25.7V83.7l0-2.7h0V57.2z M98.6,118.3h-4.5v19.2
		H79.1v-75h15.1v40.8l4.5,0c9.9,0,18.1-7.4,19.4-17h15.1C131.8,104.2,116.8,118.3,98.6,118.3z M169.4,137.5h-15.1v-19
		c6.3-3.5,11.5-8.7,15.1-14.9V137.5z M169.4,83.7l0,0.2c-0.1,19-15.7,34.5-34.7,34.5h-16.3c6.2-3.6,11.4-8.8,14.9-15.1h1.3
		c10.8,0,19.6-8.8,19.6-19.6V62.5h15.1V83.7z"/>
	<polygon class="st0" points="272.4,99.9 261.9,82.9 253.7,82.9 268.8,106.3 268.8,117.1 275.8,117.1 275.8,106.3 290.9,82.9 
		282.8,82.9 	"/>
	<path class="st0" d="M316.6,82.9H297v34.2h19.6c14.7,0,20.1-8.2,20.1-17.2S332,82.9,316.6,82.9z M316.5,111h-12.4V89h12.4
		c10.1,0,13.1,5.1,13.1,10.9C329.5,105.7,326.6,111,316.5,111z"/>
	<path class="st0" d="M381,93.3c0-7.2-5.2-10.4-13.1-10.4h-23.2v34.2h7v-12.9l12.9,0c5.6,0,8.6,1.1,8.6,5l0,8h7V109
		c0-4.8-2.6-6.3-7.9-6.7C377.2,101.4,381,99,381,93.3z M367.8,98.9h-16.2V89h16.2c3.6,0,6.1,1.5,6.1,4.7
		C373.9,96.9,371.4,98.9,367.8,98.9z"/>
	<path class="st0" d="M410,82.9h-7.7l-16.1,34.2h7.6l3.5-7.8H415l3.6,7.8h7.7L410,82.9z M399.7,104.1l6.4-14.1l6.4,14.1H399.7z"/>
	<polygon class="st0" points="240.6,97.4 215.4,97.4 215.4,82.9 208.4,82.9 208.4,117.1 215.4,117.1 215.4,102.6 240.6,102.6 
		240.6,117.1 247.6,117.1 247.6,82.9 240.6,82.9 	"/>
</g>
</svg>
