<?xml version="1.0" encoding="utf-8"?>
<!-- Generator: Adobe Illustrator 27.2.0, SVG Export Plug-In . SVG Version: 6.00 Build 0)  -->
<svg version="1.1" id="Layer_1" xmlns="http://www.w3.org/2000/svg" xmlns:xlink="http://www.w3.org/1999/xlink" x="0px" y="0px"
	 viewBox="0 0 500 157.7" style="enable-background:new 0 0 500 157.7;" xml:space="preserve">
<style type="text/css">
	.st0{fill:#FFFFFF;}
	.st1{fill-rule:evenodd;clip-rule:evenodd;fill:#615EFF;}
	.st2{fill-rule:evenodd;clip-rule:evenodd;fill:#1A194D;}
	.st3{fill:#FC7D1D;}
</style>
<g>
	<path class="st3" d="M194,47h-19.1v19.7c0,5.6-4.3,10.1-9.7,10.6c1.2-3.2,1.9-6.8,2-10.4l0-2.1H148v2c0,5.7-4.4,10.3-10,10.6V47
		h-19.1v63.7h19.1V96.4h26.2c3.7,0,7.3-0.7,10.6-2v16.3H194v-44l0-2h0V47z M137.3,92.5H134v14.3h-11.2V50.9H134v30.3l3.3,0
		c7.4,0,13.5-5.5,14.5-12.6H163C162,82,150.8,92.5,137.3,92.5z M190,106.8h-11.2V92.6c4.7-2.6,8.5-6.5,11.2-11.1V106.8z M190,66.7
		l0,0.2c-0.1,14.1-11.7,25.7-25.8,25.7h-12.1c4.6-2.7,8.5-6.6,11.1-11.2h1c8,0,14.6-6.5,14.6-14.6V50.9H190V66.7z"/>
	<polygon class="st3" points="266.7,78.8 258.8,66.1 252.8,66.1 264,83.6 264,91.6 269.2,91.6 269.2,83.6 280.5,66.1 274.4,66.1 	
		"/>
	<path class="st3" d="M299.6,66.1H285v25.5h14.6c11,0,14.9-6.1,14.9-12.8C314.5,72,311.1,66.1,299.6,66.1z M299.5,87h-9.2V70.7h9.2
		c7.5,0,9.7,3.8,9.7,8.1C309.2,83.1,307,87,299.5,87z"/>
	<path class="st3" d="M347.5,73.8c0-5.4-3.9-7.7-9.8-7.7h-17.3v25.5h5.2V82l9.6,0c4.1,0,6.4,0.8,6.4,3.7l0,5.9h5.2v-6.1
		c0-3.6-1.9-4.7-5.9-5C344.7,79.9,347.5,78.1,347.5,73.8z M337.7,78.1h-12v-7.4h12c2.7,0,4.6,1.2,4.5,3.5
		C342.2,76.6,340.4,78.1,337.7,78.1z"/>
	<path class="st3" d="M369.1,66.1h-5.7l-12,25.5h5.7l2.6-5.8h13.1l2.6,5.8h5.7L369.1,66.1z M361.5,81.9l4.8-10.5l4.8,10.5H361.5z"/>
	<polygon class="st3" points="243,76.9 224.2,76.9 224.2,66.1 219,66.1 219,91.6 224.2,91.6 224.2,80.8 243,80.8 243,91.6 
		248.2,91.6 248.2,66.1 243,66.1 	"/>
</g>
</svg>
