<svg width="1000" height="190" viewBox="0 0 1000 190" fill="none" xmlns="http://www.w3.org/2000/svg">
<path d="M388 32H349.8V71.4C349.8 82.6 341.2 91.6 330.4 92.6C332.8 86.2 334.2 79 334.4 71.8V67.6H296V71.6C296 83 287.2 92.2 276 92.8V32H237.8V159.4H276V130.8H328.4C335.8 130.8 343 129.4 349.6 126.8V159.4H388V71.4V67.4V32ZM274.6 123H268V151.6H245.6V39.8H268V100.4H274.6C289.4 100.4 301.6 89.4 303.6 75.2H326C324 102 301.6 123 274.6 123ZM380 151.6H357.6V123.2C367 118 374.6 110.2 380 101V151.6ZM380 71.4V71.8C379.8 100 356.6 123.2 328.4 123.2H304.2C313.4 117.8 321.2 110 326.4 100.8H328.4C344.4 100.8 357.6 87.8 357.6 71.6V39.8H380V71.4Z" fill="#FC7D1D"/>
<path d="M533.4 95.6L517.6 70.2H505.6L528 105.2V121.2H538.4V105.2L561 70.2H548.8L533.4 95.6Z" fill="#FC7D1D"/>
<path d="M599.2 70.2H570V121.2H599.2C621.2 121.2 629 109 629 95.6C629 82 622.2 70.2 599.2 70.2ZM599 112H580.6V79.3999H599C614 79.3999 618.4 87 618.4 95.6C618.4 104.2 614 112 599 112Z" fill="#FC7D1D"/>
<path d="M695 85.6C695 74.8 687.2 70.2 675.4 70.2H640.8V121.2H651.2V102H670.4C678.6 102 683.2 103.6 683.2 109.4V121.2H693.6V109C693.6 101.8 689.8 99.6 681.8 99C689.4 97.8 695 94.2 695 85.6ZM675.4 94.2H651.4V79.3999H675.4C680.8 79.3999 684.6 81.7999 684.4 86.3999C684.4 91.1999 680.8 94.2 675.4 94.2Z" fill="#FC7D1D"/>
<path d="M738.2 70.2H726.8L702.8 121.2H714.2L719.4 109.6H745.6L750.8 121.2H762.2L738.2 70.2ZM723 101.8L732.6 80.8L742.2 101.8H723Z" fill="#FC7D1D"/>
<path d="M486 91.8H448.4V70.2H438V121.2H448.4V99.6H486V121.2H496.4V70.2H486V91.8Z" fill="#FC7D1D"/>
</svg>
