<?xml version="1.0" encoding="utf-8"?>
<!-- Generator: Adobe Illustrator 27.2.0, SVG Export Plug-In . SVG Version: 6.00 Build 0)  -->
<svg version="1.1" id="Layer_1" xmlns="http://www.w3.org/2000/svg" xmlns:xlink="http://www.w3.org/1999/xlink" x="0px" y="0px"
	 viewBox="0 0 500 200" style="enable-background:new 0 0 500 200;" xml:space="preserve">
<style type="text/css">
	.st0{fill:#FFFFFF;}
	.st1{fill-rule:evenodd;clip-rule:evenodd;fill:#615EFF;}
	.st2{fill-rule:evenodd;clip-rule:evenodd;fill:#1A194D;}
	.st3{fill:#FC7D1D;}
</style>
<g>
	<path class="st3" d="M194,68.1h-19.1v19.7c0,5.6-4.3,10.1-9.7,10.6c1.2-3.2,1.9-6.8,2-10.4l0-2.1H148v2c0,5.7-4.4,10.3-10,10.6
		V68.1h-19.1v63.7h19.1v-14.3h26.2c3.7,0,7.3-0.7,10.6-2v16.3H194v-44l0-2h0V68.1z M137.3,113.6H134v14.3h-11.2V72.1H134v30.3l3.3,0
		c7.4,0,13.5-5.5,14.5-12.6H163C162,103.1,150.8,113.6,137.3,113.6z M190,127.9h-11.2v-14.2c4.7-2.6,8.5-6.5,11.2-11.1V127.9z
		 M190,87.8l0,0.2c-0.1,14.1-11.7,25.7-25.8,25.7h-12.1c4.6-2.7,8.5-6.6,11.1-11.2h1c8,0,14.6-6.5,14.6-14.6V72.1H190V87.8z"/>
	<polygon class="st3" points="266.7,99.9 258.8,87.3 252.8,87.3 264,104.7 264,112.7 269.2,112.7 269.2,104.7 280.5,87.3 
		274.4,87.3 	"/>
	<path class="st3" d="M299.6,87.3H285v25.5h14.6c11,0,14.9-6.1,14.9-12.8C314.5,93.2,311.1,87.3,299.6,87.3z M299.5,108.2h-9.2V91.8
		h9.2c7.5,0,9.7,3.8,9.7,8.1C309.2,104.2,307,108.2,299.5,108.2z"/>
	<path class="st3" d="M347.5,95c0-5.4-3.9-7.7-9.8-7.7h-17.3v25.5h5.2v-9.6l9.6,0c4.1,0,6.4,0.8,6.4,3.7l0,5.9h5.2v-6.1
		c0-3.6-1.9-4.7-5.9-5C344.7,101,347.5,99.3,347.5,95z M337.7,99.2h-12v-7.4h12c2.7,0,4.6,1.2,4.5,3.5
		C342.2,97.7,340.4,99.2,337.7,99.2z"/>
	<path class="st3" d="M369.1,87.3h-5.7l-12,25.5h5.7l2.6-5.8h13.1l2.6,5.8h5.7L369.1,87.3z M361.5,103l4.8-10.5L371,103H361.5z"/>
	<polygon class="st3" points="243,98 224.2,98 224.2,87.3 219,87.3 219,112.7 224.2,112.7 224.2,102 243,102 243,112.7 248.2,112.7 
		248.2,87.3 243,87.3 	"/>
</g>
</svg>
